<svg xmlns="http://www.w3.org/2000/svg" version="1.1" xmlnsXlink="http://www.w3.org/1999/xlink" xmlnssvgjs="http://svgjs.com/svgjs" width="512" height="512" x="0" y="0" viewBox="0 0 512 512" style="enable-background:new 0 0 512 512" xml:space="preserve" class=""><g><linearGradient id="a" x1="256" x2="256" y1="512" y2="0" gradientUnits="userSpaceOnUse"><stop offset="0" stop-color="#5558ff"></stop><stop offset="1" stop-color="#00c0ff"></stop></linearGradient><linearGradient id="b" x1="256" x2="256" y1="452" y2="91" gradientUnits="userSpaceOnUse"><stop offset="0" stop-color="#addcff"></stop><stop offset=".503" stop-color="#eaf6ff"></stop><stop offset="1" stop-color="#eaf6ff"></stop></linearGradient><circle cx="256" cy="256" r="256" fill="url(#a)" data-original="url(#a)" class=""></circle><path fill="url(#b)" d="M331 166c0-41.355-33.645-75-75-75s-75 33.645-75 75 33.645 75 75 75 75-33.645 75-75zm-75 75c-74.439 0-135 60.561-135 135v14.058c0 4.264 1.814 8.326 4.99 11.171C162.528 433.969 208.7 452 256 452c47.301 0 93.473-18.031 130.01-50.771a14.998 14.998 0 0 0 4.99-11.171V376c0-74.439-60.561-135-135-135z" data-original="url(#b)"></path></g></svg>