<svg width="48" height="47" viewBox="0 0 48 47" fill="none" xmlns="http://www.w3.org/2000/svg">
<g clip-path="url(#clip0_292_14148)">
<path d="M47.1574 15.9438C46.9243 16.4313 46.6539 16.8118 46.0958 16.9072C45.5076 17.0079 44.8894 16.7951 44.5339 16.3286C42.6387 13.8417 40.1318 12.2757 37.1224 11.5256C36.2211 11.301 35.2759 11.2227 34.3451 11.1529C32.1379 10.9874 30.0362 11.4496 28.0232 12.3411C26.6925 12.9304 25.4967 13.7235 24.387 14.6711C23.1111 15.7604 22.1338 17.0728 21.3678 18.5407C20.7683 19.6897 20.3298 20.9132 20.2167 22.2183C20.1233 23.2961 19.977 24.3875 20.0584 25.4573C20.1427 26.5643 20.385 27.68 20.7156 28.743C21.2819 30.5641 20.9616 32.1066 19.6046 33.4487C18.0893 34.9474 16.5843 36.4567 15.0869 37.9733C14.8505 38.2128 14.7074 38.2199 14.4664 37.9763C12.7211 36.2126 10.9668 34.4575 9.2021 32.7131C8.94947 32.4634 8.92672 32.3148 9.19356 32.0583C10.0384 31.2462 10.8558 30.4055 11.6891 29.5812C11.8671 29.4052 11.9309 29.3012 11.7628 29.0231C10.5454 27.0096 9.68572 24.8472 9.25483 22.5293C8.95909 20.9383 8.85 19.3179 9.00178 17.7153C9.12333 16.4318 9.40893 15.1497 9.75726 13.9049C10.4559 11.4083 11.7462 9.1938 13.3629 7.19189C14.8843 5.30806 16.7117 3.75668 18.8324 2.5486C20.6777 1.49746 22.649 0.820097 24.7086 0.375968C25.2888 0.250851 25.8919 0.232185 26.4988 0.128048C27.7026 0.0914024 28.892 0.0914024 30.1388 0.128225C30.8028 0.233522 31.4218 0.247372 32.0135 0.381504C33.3693 0.688812 34.7005 1.06448 35.9895 1.62199C37.8641 2.4328 39.5803 3.48115 41.0679 4.85849C42.0452 5.76337 42.9242 6.78589 43.7691 7.81962C44.9585 9.275 45.7954 10.9427 46.4253 12.71C46.6922 13.4588 46.9147 14.2234 47.1574 14.9808C47.1574 15.2879 47.1574 15.5949 47.1574 15.9438Z" fill="#58633A"/>
<path d="M0.388672 41.6966C0.536602 41.396 0.663604 41.1231 0.836772 40.8836C1.20917 40.3684 1.56899 39.8368 1.99911 39.3723C2.98724 38.3052 4.01435 37.2741 5.05938 36.1935C4.71663 35.863 4.39344 35.4993 4.0183 35.2008C3.29205 34.6231 3.39435 33.563 3.8896 33.0609C4.44799 32.4948 5.38824 32.5262 6.04201 33.1882C7.39972 34.563 8.77165 35.9237 10.1379 37.29C11.4074 38.5595 12.6821 39.8238 13.944 41.1008C14.3591 41.5209 14.6421 41.9959 14.4617 42.6389C14.3202 43.1431 13.9938 43.4792 13.5274 43.6163C13.0453 43.7579 12.5461 43.7143 12.152 43.3221C11.7532 42.9251 11.3572 42.5251 11.1158 42.2829C9.91495 43.3978 8.71285 44.5011 7.52618 45.6208C6.92322 46.1897 6.25315 46.6193 5.4234 46.8268C4.8627 46.8605 4.31269 46.8605 3.70853 46.8262C2.21062 46.5057 1.25003 45.6369 0.659029 44.3167C0.585483 44.1524 0.479582 44.0026 0.388672 43.8461C0.388672 43.1439 0.388672 42.4416 0.388672 41.6966Z" fill="#58633A"/>
</g>
<defs>
<clipPath id="clip0_292_14148">
<rect width="46.7692" height="46.7692" fill="white" transform="translate(0.296875)"/>
</clipPath>
</defs>
</svg>
